<svg width="18" height="18" viewBox="0 0 18 18" fill="none" xmlns="http://www.w3.org/2000/svg">
<path d="M8.1665 0.666748C12.3065 0.666748 15.6665 4.02675 15.6665 8.16675C15.6665 12.3067 12.3065 15.6667 8.1665 15.6667C4.0265 15.6667 0.666504 12.3067 0.666504 8.16675C0.666504 4.02675 4.0265 0.666748 8.1665 0.666748ZM8.1665 14.0001C11.389 14.0001 13.9998 11.3892 13.9998 8.16675C13.9998 4.94341 11.389 2.33341 8.1665 2.33341C4.94317 2.33341 2.33317 4.94341 2.33317 8.16675C2.33317 11.3892 4.94317 14.0001 8.1665 14.0001ZM15.2373 14.0592L17.5948 16.4159L16.4157 17.5951L14.059 15.2376L15.2373 14.0592Z" fill="black"/>
</svg>
